<svg width="36" height="35" viewBox="0 0 36 35" fill="none" xmlns="http://www.w3.org/2000/svg">
<path d="M15.2 30.4167H2.91667C2.47464 30.4167 2.05072 30.2411 1.73816 29.9285C1.42559 29.616 1.25 29.192 1.25 28.75V26.6733C1.25 21.9967 7.87333 18.3333 14.5833 18.3333C15.0133 18.3333 15.4411 18.3483 15.8667 18.3783M20.59 7.25667C20.59 8.04547 20.4346 8.82656 20.1328 9.55532C19.8309 10.2841 19.3885 10.9462 18.8307 11.504C18.2729 12.0618 17.6107 12.5042 16.882 12.8061C16.1532 13.108 15.3721 13.2633 14.5833 13.2633C13.7945 13.2633 13.0134 13.108 12.2847 12.8061C11.5559 12.5042 10.8937 12.0618 10.336 11.504C9.77821 10.9462 9.33576 10.2841 9.0339 9.55532C8.73203 8.82656 8.57667 8.04547 8.57667 7.25667C8.57667 5.6636 9.20951 4.13578 10.336 3.00931C11.4624 1.88284 12.9903 1.25 14.5833 1.25C16.1764 1.25 17.7042 1.88284 18.8307 3.00931C19.9572 4.13578 20.59 5.6636 20.59 7.25667Z" stroke="#FBFBFF" stroke-width="2.5" stroke-linecap="round" stroke-linejoin="round"/>
<path fill-rule="evenodd" clip-rule="evenodd" d="M26.25 34.1666C28.6811 34.1666 31.0127 33.2009 32.7318 31.4818C34.4509 29.7627 35.4167 27.4311 35.4167 25C35.4167 22.5688 34.4509 20.2372 32.7318 18.5182C31.0127 16.7991 28.6811 15.8333 26.25 15.8333C23.8188 15.8333 21.4873 16.7991 19.7682 18.5182C18.0491 20.2372 17.0833 22.5688 17.0833 25C17.0833 27.4311 18.0491 29.7627 19.7682 31.4818C21.4873 33.2009 23.8188 34.1666 26.25 34.1666ZM26.25 19.1783C26.471 19.1783 26.683 19.2661 26.8393 19.4224C26.9955 19.5787 27.0833 19.7906 27.0833 20.0116V24.1666H31.2383C31.4593 24.1666 31.6713 24.2544 31.8276 24.4107C31.9839 24.567 32.0717 24.779 32.0717 25C32.0717 25.221 31.9839 25.433 31.8276 25.5892C31.6713 25.7455 31.4593 25.8333 31.2383 25.8333H27.0833V29.99C27.0833 30.211 26.9955 30.423 26.8393 30.5792C26.683 30.7355 26.471 30.8233 26.25 30.8233C26.029 30.8233 25.817 30.7355 25.6607 30.5792C25.5045 30.423 25.4167 30.211 25.4167 29.99V25.8333H21.2617C21.0406 25.8333 20.8287 25.7455 20.6724 25.5892C20.5161 25.433 20.4283 25.221 20.4283 25C20.4283 24.779 20.5161 24.567 20.6724 24.4107C20.8287 24.2544 21.0406 24.1666 21.2617 24.1666H25.4167V20.0116C25.4167 19.7906 25.5045 19.5787 25.6607 19.4224C25.817 19.2661 26.029 19.1783 26.25 19.1783Z" fill="#06D6A0"/>
</svg>
