<svg width="146" height="43" viewBox="0 0 146 43" fill="none" xmlns="http://www.w3.org/2000/svg">
<path d="M135.797 27.97C135.557 27.97 135.384 27.89 135.277 27.73C135.171 27.57 135.117 27.3967 135.117 27.21V25.01C135.117 24.6367 135.224 24.3967 135.437 24.29C135.651 24.1833 135.944 24.13 136.317 24.13H136.797C138.104 24.13 139.024 23.7833 139.557 23.09C140.117 22.3967 140.397 21.3567 140.397 19.97C140.397 19.49 140.371 19.05 140.317 18.65C140.291 18.2233 140.211 17.77 140.077 17.29L139.397 14.25C139.317 13.9567 139.344 13.73 139.477 13.57C139.611 13.41 139.824 13.29 140.117 13.21L141.557 12.89C142.171 12.7567 142.544 12.9967 142.677 13.61L143.397 17.13C143.531 17.6633 143.624 18.2767 143.677 18.97C143.757 19.6633 143.797 20.1833 143.797 20.53C143.797 22.77 143.264 24.57 142.197 25.93C141.157 27.29 139.597 27.97 137.517 27.97H135.797ZM137.997 9.49C137.864 9.62333 137.704 9.69 137.517 9.69C137.331 9.69 137.157 9.61 136.997 9.45L135.557 7.97C135.424 7.81 135.357 7.65 135.357 7.49C135.357 7.30333 135.424 7.13 135.557 6.97L136.997 5.49C137.157 5.33 137.331 5.25 137.517 5.25C137.704 5.25 137.864 5.33 137.997 5.49L139.477 6.97C139.637 7.10333 139.717 7.27667 139.717 7.49C139.744 7.67667 139.677 7.85 139.517 8.01L137.997 9.49ZM143.957 9.49C143.824 9.65 143.664 9.71667 143.477 9.69C143.291 9.66333 143.117 9.58333 142.957 9.45L141.437 7.97C141.304 7.83667 141.237 7.67667 141.237 7.49C141.237 7.27667 141.304 7.10333 141.437 6.97L142.957 5.49C143.117 5.33 143.277 5.25 143.437 5.25C143.597 5.25 143.757 5.33 143.917 5.49L145.397 6.97C145.557 7.10333 145.637 7.27667 145.637 7.49C145.637 7.67667 145.557 7.85 145.397 8.01L143.957 9.49Z" fill="#06D6A0"/>
<path d="M114.312 27.97C113.885 27.97 113.672 27.7567 113.672 27.33V25.25C113.672 24.9033 113.779 24.6367 113.992 24.45C114.179 24.2367 114.445 24.13 114.792 24.13C115.912 24.13 116.885 24.1167 117.712 24.09C118.565 24.0367 119.299 23.97 119.912 23.89C120.552 23.7833 121.099 23.6767 121.552 23.57C121.045 23.17 120.525 22.7033 119.992 22.17C119.485 21.61 119.059 20.9833 118.712 20.29C118.392 19.57 118.219 18.7567 118.192 17.85C118.192 16.41 118.525 15.17 119.192 14.13C119.885 13.09 120.779 12.29 121.872 11.73C122.992 11.1433 124.192 10.85 125.472 10.85C126.725 10.85 127.859 11.1433 128.872 11.73C129.885 12.29 130.699 13.0767 131.312 14.09C131.925 15.1033 132.232 16.2633 132.232 17.57C132.232 18.7967 131.925 19.89 131.312 20.85C130.725 21.7833 129.872 22.7033 128.752 23.61C129.605 23.77 130.365 23.89 131.032 23.97C131.699 24.0233 132.432 24.0633 133.232 24.09C134.032 24.1167 135.045 24.13 136.272 24.13C136.459 24.13 136.605 24.1967 136.712 24.33C136.845 24.4367 136.912 24.5833 136.912 24.77V26.69C136.912 27.5433 136.485 27.97 135.632 27.97C134.192 27.97 132.965 27.9433 131.952 27.89C130.965 27.81 130.085 27.7033 129.312 27.57C128.565 27.4367 127.845 27.2633 127.152 27.05C126.459 26.81 125.699 26.5033 124.872 26.13C124.179 26.4767 123.525 26.77 122.912 27.01C122.299 27.25 121.619 27.4367 120.872 27.57C120.125 27.7033 119.232 27.81 118.192 27.89C117.152 27.9433 115.859 27.97 114.312 27.97ZM125.312 22.53C126.539 21.8633 127.459 21.1167 128.072 20.29C128.712 19.4633 129.032 18.6367 129.032 17.81C129.032 16.7167 128.699 15.85 128.032 15.21C127.392 14.5433 126.485 14.21 125.312 14.21C124.325 14.21 123.432 14.5167 122.632 15.13C121.859 15.7433 121.472 16.5967 121.472 17.69C121.472 18.7833 121.832 19.7033 122.552 20.45C123.272 21.17 124.192 21.8633 125.312 22.53ZM123.032 6.88999C122.899 7.02333 122.739 7.08999 122.552 7.08999C122.365 7.08999 122.192 7.00999 122.032 6.84999L120.592 5.37C120.459 5.21 120.392 5.04999 120.392 4.88999C120.392 4.70333 120.459 4.52999 120.592 4.37L122.032 2.89C122.192 2.72999 122.365 2.64999 122.552 2.64999C122.739 2.64999 122.899 2.72999 123.032 2.89L124.512 4.37C124.672 4.50333 124.752 4.67666 124.752 4.88999C124.779 5.07666 124.712 5.24999 124.552 5.40999L123.032 6.88999ZM128.992 6.88999C128.859 7.04999 128.699 7.11666 128.512 7.08999C128.325 7.06333 128.152 6.98333 127.992 6.84999L126.472 5.37C126.339 5.23666 126.272 5.07666 126.272 4.88999C126.272 4.67666 126.339 4.50333 126.472 4.37L127.992 2.89C128.152 2.72999 128.312 2.64999 128.472 2.64999C128.632 2.64999 128.792 2.72999 128.952 2.89L130.432 4.37C130.592 4.50333 130.672 4.67666 130.672 4.88999C130.672 5.07666 130.592 5.24999 130.432 5.40999L128.992 6.88999Z" fill="#06D6A0"/>
<path d="M91.8616 28.13C91.2749 28.13 90.6349 28.05 89.9416 27.89C89.2482 27.73 88.5816 27.3967 87.9416 26.89C87.3282 26.3833 86.8082 25.6233 86.3816 24.61C85.9549 25.49 85.3949 26.17 84.7016 26.65C84.0082 27.13 83.2349 27.4767 82.3816 27.69C81.5282 27.8767 80.6349 27.97 79.7016 27.97C79.3016 27.97 79.1016 27.7567 79.1016 27.33V25.33C79.1016 24.53 79.5016 24.13 80.3016 24.13C82.0616 24.13 83.2749 23.8633 83.9416 23.33C84.6349 22.77 84.9816 21.73 84.9816 20.21V16.97C84.9816 16.6767 85.0482 16.45 85.1816 16.29C85.3416 16.13 85.5682 16.05 85.8616 16.05H87.4216C87.9816 16.05 88.2616 16.3567 88.2616 16.97V20.33C88.2616 21.85 88.6082 22.89 89.3016 23.45C89.9949 24.01 90.8882 24.29 91.9816 24.29C93.3682 24.29 94.3016 23.9433 94.7816 23.25C95.2882 22.5567 95.5416 21.53 95.5416 20.17V17.05C95.5416 16.7567 95.6082 16.5167 95.7416 16.33C95.9016 16.1433 96.1282 16.05 96.4216 16.05H97.9416C98.2349 16.05 98.4482 16.1433 98.5816 16.33C98.7416 16.5167 98.8216 16.7567 98.8216 17.05V20.29C98.8216 21.7567 99.1016 22.7967 99.6616 23.41C100.222 23.9967 101.182 24.29 102.542 24.29C103.928 24.29 104.862 23.9433 105.342 23.25C105.822 22.5567 106.062 21.53 106.062 20.17V16.97C106.062 16.7033 106.128 16.49 106.262 16.33C106.395 16.1433 106.595 16.05 106.862 16.05H108.542C108.808 16.05 109.008 16.1433 109.142 16.33C109.302 16.49 109.382 16.7033 109.382 16.97V20.21C109.382 21.65 109.728 22.6633 110.422 23.25C111.115 23.8367 112.315 24.13 114.022 24.13H114.862C115.262 24.13 115.462 24.33 115.462 24.73V26.77C115.462 27.57 115.048 27.97 114.222 27.97C112.568 27.97 111.182 27.77 110.062 27.37C108.942 26.9433 108.062 26.2767 107.422 25.37C106.995 26.33 106.328 27.0367 105.422 27.49C104.515 27.9167 103.528 28.13 102.462 28.13C101.155 28.13 100.035 27.9167 99.1016 27.49C98.1682 27.0367 97.4349 26.33 96.9016 25.37C96.4482 26.3567 95.7682 27.0633 94.8616 27.49C93.9816 27.9167 92.9816 28.13 91.8616 28.13Z" fill="#06D6A0"/>
<path d="M66.6547 27.97C66.2547 27.97 66.0547 27.7567 66.0547 27.33V25.33C66.0547 24.53 66.4547 24.13 67.2547 24.13C68.908 24.13 70.0547 23.81 70.6947 23.17C71.3614 22.53 71.6947 21.37 71.6947 19.69V15.73C71.6947 15.1433 71.988 14.85 72.5747 14.85H74.1747C74.7614 14.85 75.0547 15.1433 75.0547 15.73V19.69C75.0547 20.8367 75.2147 21.7433 75.5347 22.41C75.8814 23.05 76.428 23.5033 77.1747 23.77C77.948 24.01 78.988 24.13 80.2947 24.13C80.6947 24.13 80.8947 24.33 80.8947 24.73V26.77C80.8947 27.57 80.4947 27.97 79.6947 27.97C78.228 27.97 76.8947 27.73 75.6947 27.25C74.4947 26.7433 73.5614 25.81 72.8947 24.45C72.308 25.7833 71.4414 26.7033 70.2947 27.21C69.1747 27.7167 67.9614 27.97 66.6547 27.97ZM71.0547 35.25C70.9214 35.3567 70.7614 35.3967 70.5747 35.37C70.388 35.37 70.228 35.3167 70.0947 35.21L68.6147 33.73C68.4814 33.5967 68.4147 33.4367 68.4147 33.25C68.4147 33.0633 68.4814 32.9033 68.6147 32.77L70.0947 31.29C70.228 31.1567 70.3747 31.09 70.5347 31.09C70.7214 31.09 70.8947 31.1567 71.0547 31.29L72.4947 32.77C72.6547 32.9033 72.7347 33.0633 72.7347 33.25C72.7614 33.4367 72.6947 33.61 72.5347 33.77L71.0547 35.25ZM76.5347 35.25C76.428 35.3567 76.2814 35.3967 76.0947 35.37C75.908 35.37 75.748 35.3167 75.6147 35.21L74.0947 33.73C73.9614 33.5967 73.8947 33.4367 73.8947 33.25C73.8947 33.0633 73.9614 32.9033 74.0947 32.77L75.6147 31.29C75.748 31.1567 75.8947 31.09 76.0547 31.09C76.2414 31.09 76.388 31.1567 76.4947 31.29L77.9747 32.77C78.1347 32.9033 78.2147 33.0633 78.2147 33.25C78.2414 33.4367 78.1747 33.61 78.0147 33.77L76.5347 35.25Z" fill="#06D6A0"/>
<path d="M55.92 27.97C55.5733 27.97 55.3333 27.9167 55.2 27.81C55.0667 27.6767 55 27.49 55 27.25V25.01C55 24.6367 55.1067 24.3967 55.32 24.29C55.5333 24.1833 55.8267 24.13 56.2 24.13H67.24C67.64 24.13 67.84 24.33 67.84 24.73V27.09C67.84 27.4633 67.7333 27.7033 67.52 27.81C67.3067 27.9167 67.0133 27.97 66.64 27.97H55.92Z" fill="#06D6A0"/>
<path d="M19.2918 28C18.9452 28 18.7052 27.946 18.5718 27.8379C18.4385 27.7028 18.3718 27.5137 18.3718 27.2706V25.0014C18.3718 24.6232 18.4785 24.3801 18.6918 24.2721C18.9052 24.164 19.1985 24.11 19.5718 24.11H30.6118C31.0118 24.11 31.2118 24.3126 31.2118 24.7178V27.1085C31.2118 27.4867 31.1052 27.7299 30.8918 27.8379C30.6785 27.946 30.3852 28 30.0118 28H19.2918Z" fill="#06D6A0"/>
<path d="M17.64 28C15.7467 28 14.3067 27.5543 13.32 26.6628C12.3333 25.7443 11.7333 24.245 11.52 22.165C10.8533 23.1105 10.0133 23.8398 9 24.3531C7.98667 24.8394 6.90667 25.0825 5.76 25.0825C3.94667 25.0825 2.53333 24.5827 1.52 23.5832C0.506667 22.5837 0 21.2465 0 19.5716C0 18.5721 0.213333 17.6266 0.64 16.7352C1.09333 15.8167 1.81333 14.9657 2.8 14.1823C3.81333 13.3989 5.14667 12.6966 6.8 12.0752L11.2 10.3328V8.54992C11.2 8.3068 11.2933 8.10419 11.48 7.94211C11.6933 7.75301 11.92 7.65846 12.16 7.65846H13.68C13.92 7.65846 14.12 7.75301 14.28 7.94211C14.44 8.10419 14.52 8.3068 14.52 8.54992V20.301C14.52 21.8408 14.76 22.8673 15.24 23.3806C15.7467 23.8669 16.6533 24.11 17.96 24.11H19.64C19.8 24.11 19.92 24.191 20 24.3531C20.1067 24.4882 20.16 24.6367 20.16 24.7988V26.987C20.16 27.6623 19.7867 28 19.04 28H17.64ZM6.6 21.6787C7.56 21.6787 8.37333 21.4761 9.04 21.0709C9.73333 20.6387 10.2667 20.0849 10.64 19.4095C11.0133 18.7072 11.2 18.0048 11.2 17.3025V13.5745L7.64 14.8307C6.2 15.3439 5.13333 15.9518 4.44 16.6541C3.74667 17.3295 3.4 18.0994 3.4 18.9638C3.4 19.8283 3.69333 20.5036 4.28 20.9899C4.86667 21.4491 5.64 21.6787 6.6 21.6787ZM10.4 4.29522C10.2667 4.43029 10.1067 4.49783 9.92 4.49783C9.73333 4.49783 9.56 4.41678 9.4 4.2547L7.96 2.75542C7.82667 2.59334 7.76 2.43126 7.76 2.26917C7.76 2.08008 7.82667 1.90448 7.96 1.7424L9.4 0.243125C9.56 0.0810412 9.73333 0 9.92 0C10.1067 0 10.2667 0.0810412 10.4 0.243125L11.88 1.7424C12.04 1.87747 12.12 2.05306 12.12 2.26917C12.1467 2.45827 12.08 2.63386 11.92 2.79595L10.4 4.29522ZM16.36 4.29522C16.2267 4.45731 16.0667 4.52484 15.88 4.49783C15.6933 4.47081 15.52 4.38977 15.36 4.2547L13.84 2.75542C13.7067 2.62035 13.64 2.45827 13.64 2.26917C13.64 2.05306 13.7067 1.87747 13.84 1.7424L15.36 0.243125C15.52 0.0810412 15.68 0 15.84 0C16 0 16.16 0.0810412 16.32 0.243125L17.8 1.7424C17.96 1.87747 18.04 2.05306 18.04 2.26917C18.04 2.45827 17.96 2.63386 17.8 2.79595L16.36 4.29522Z" fill="#06D6A0"/>
<g clip-path="url(#clip0_102_80)">
<path d="M35.6581 13.2713C29.3899 17.3773 28.3699 25.8093 32.5197 31.2867C37.4079 37.7368 44.4684 37.8682 50.0432 34.0472C55.9 30.0331 57.5477 22.8471 53.1705 16.6297C48.8021 10.4217 41.4367 9.48826 35.6581 13.2713Z" fill="url(#paint0_linear_102_80)"/>
<path d="M32.0642 18.5366C29.4009 23.9625 31.4108 32.8859 39.6475 35.1018C40.6554 35.373 41.8638 35.2213 42.7574 35.0708C48.8497 34.0286 52.3065 26.9697 52.821 23.0205C53.2293 19.8863 52.9878 18.1531 50.9717 15.6126C49.4054 13.6364 47.1551 12.2265 44.3027 11.9868C37.8487 11.4381 33.7548 15.0888 32.0642 18.5366Z" fill="#FBFBFF"/>
<path d="M39.3431 19.8772C39.3215 19.8791 37.0776 20.0429 35.5085 20.4256C33.8739 20.8244 32.7331 21.2157 32.7214 21.221L32.4458 20.4246C32.4931 20.408 33.6327 20.015 35.3099 19.6077C36.9492 19.2082 39.1901 19.0438 39.2854 19.038L39.3431 19.8772ZM40.9546 16.1325L39.6132 12.0948L40.4139 11.8287L41.7555 15.8662L40.9546 16.1325ZM50.9936 15.7582C50.9825 15.7606 49.814 16.0356 48.5856 16.4554C47.6614 16.7716 46.5093 17.2366 46.4976 17.2419L46.1811 16.4604C46.229 16.4409 47.3647 15.9818 48.3117 15.6579C49.5827 15.222 50.7524 14.9488 50.802 14.9356L50.9936 15.7582ZM50.125 26.3328C50.118 26.3223 49.3104 25.3151 48.364 24.3659C47.4287 23.4296 46.3472 22.6838 46.3378 22.6774L46.8145 21.9812C46.8615 22.0131 47.97 22.7764 48.9624 23.7709C49.943 24.7555 50.7517 25.7645 50.7859 25.8076L50.125 26.3328ZM54.2583 24.9566L53.4415 24.7421C53.4449 24.7321 53.7148 23.6844 53.7878 22.0061C53.8545 20.4541 53.5961 19.3102 53.5925 19.2973L54.4134 19.1069C54.4248 19.1578 54.7006 20.3765 54.6287 22.0414C54.5534 23.8181 54.2703 24.9103 54.2583 24.9566ZM39.0542 30.0222L40.661 23.679L41.4789 23.8862L39.872 30.2294L39.0542 30.0222ZM34.9162 31.4093C34.8597 31.3482 33.5369 29.8871 32.5381 28.4082C31.5417 26.9328 30.7875 25.4543 30.7573 25.3907L31.5103 25.0094C31.518 25.0246 32.2734 26.5049 33.2391 27.9348C34.2025 29.3612 35.5305 30.8264 35.5429 30.8409L34.9162 31.4093ZM49.8809 31.5605C49.8336 31.5848 48.6764 32.1703 46.4662 32.874C45.0578 33.3212 43.2359 33.5182 43.1582 33.5274L43.0701 32.6884C43.0888 32.6859 44.8855 32.4932 46.2116 32.071C48.3488 31.3913 49.4873 30.8158 49.499 30.8104L49.8809 31.5605Z" fill="#07393C"/>
<path d="M37.1922 19.5303C37.2301 19.7032 40.5896 24.5232 40.7978 24.5939C41.0059 24.6646 47.0232 23.0214 47.2051 22.8196C47.387 22.6178 47.223 16.7444 47.112 16.5801C47.0011 16.4158 41.1118 14.6228 40.9227 14.6971C40.7336 14.7714 37.1416 19.2972 37.1922 19.5303ZM48.7817 12.5736C48.7817 12.5736 49.6801 15.4566 49.8041 15.6401C49.9268 15.8219 51.0444 16.5307 52.0837 17.6361C53.1229 18.7414 54.0895 20.802 54.2667 20.7893C54.4439 20.7765 55.0519 20.3124 55.0519 20.3124C55.0519 20.3124 54.3668 17.9828 52.4453 15.6916C50.5225 13.3986 48.7817 12.5736 48.7817 12.5736ZM50.0277 25.6197C49.8903 25.7328 48.2725 31.6439 48.3525 31.7247C48.4314 31.8038 51.4065 32.9941 51.4065 32.9941C51.4065 32.9941 53.18 31.5799 54.2686 29.4906C55.3571 27.4013 55.4507 26.1341 55.4507 26.1341C55.4507 26.1341 54.1962 23.7641 54.0935 23.808C53.9902 23.8472 50.1995 25.4782 50.0277 25.6197ZM34.3835 30.1757C34.3393 30.3251 34.6195 31.9838 34.9369 32.808C35.2531 33.6304 35.6191 34.3683 35.6191 34.3683C35.6191 34.3683 36.9149 35.3411 38.2074 35.8376C39.8082 36.4517 41.4224 36.5578 41.4224 36.5578C41.4224 36.5578 44.1682 33.1686 44.0882 33.0087C44.0083 32.8489 42.724 31.8556 41.7166 30.9935C40.7093 30.1313 39.8535 28.981 39.6938 28.9819C39.5341 28.9829 38.1868 29.3888 37.0761 29.6324C35.9654 29.876 34.4322 30.0104 34.3835 30.1757ZM30.3234 26.5008C30.3234 26.5008 31.838 26.6818 31.9849 26.5827C32.1317 26.4835 32.2294 24.6307 32.6617 23.2544C33.2432 21.3981 33.6418 20.6503 33.5748 20.5097C33.5061 20.3703 31.9949 16.9493 31.9949 16.9493C31.9949 16.9493 30.4855 19.0861 30.1529 21.7823C29.8204 24.4784 30.3234 26.5008 30.3234 26.5008ZM36.2082 12.9176C36.2082 12.9176 37.7791 12.7297 38.4034 12.7383C39.0277 12.7468 40.0761 12.95 40.2744 12.844C40.471 12.7393 43.0086 11.028 43.0086 11.028C43.0086 11.028 41.3271 11.0182 39.7482 11.4279C37.848 11.9196 36.2082 12.9176 36.2082 12.9176Z" fill="#07393C"/>
</g>
<defs>
<linearGradient id="paint0_linear_102_80" x1="35.6302" y1="13.2886" x2="49.7733" y2="34.2299" gradientUnits="userSpaceOnUse">
<stop stop-color="#0A9F87"/>
<stop offset="1" stop-color="#0D686D"/>
</linearGradient>
<clipPath id="clip0_102_80">
<rect width="27" height="27" fill="white" transform="translate(24 20.1114) rotate(-34.0338)"/>
</clipPath>
</defs>
</svg>
